{
  "accessors": [
    {
      "bufferView": 2,
      "componentType": 5126,
      "count": 3315,
      "max": [
        896.14599609375,
        114.42823791503906,
        440.2596435546875
      ],
      "min": [
        -896.1463623046875,
        -873.391845703125,
        -390.11456298828125
      ],
      "type": "VEC3"
    },
    {
      "bufferView": 2,
      "byteOffset": 39780,
      "componentType": 5126,
      "count": 3315,
      "max": [
        1.0,
        1.0,
        1.0
      ],
      "min": [
        -1.0,
        -1.0,
        -1.0
      ],
      "type": "VEC3"
    },
    {
      "bufferView": 3,
      "componentType": 5126,
      "count": 3315,
      "max": [
        1.0,
        0.9999902248382568,
        0.807090163230896,
        1.0
      ],
      "min": [
        -1.0,
        -0.999993085861206,
        -0.8086811900138855,
        1.0
      ],
      "type": "VEC4"
    },
    {
      "bufferView": 1,
      "componentType": 5126,
      "count": 3315,
      "max": [
        0.998222291469574,
        0.960988461971283
      ],
      "min": [
        0.0,
        0.0
      ],
      "type": "VEC2"
    },
    {
      "bufferView": 0,
      "componentType": 5125,
      "count": 12300,
      "type": "SCALAR"
    },
    {
      "bufferView": 2,
      "byteOffset": 79560,
      "componentType": 5126,
      "count": 1794,
      "max": [
        1060.3321533203125,
        -242.99215698242188,
        328.6300048828125
      ],
      "min": [
        -1060.3321533203125,
        -1908.87451171875,
        -328.6300048828125
      ],
      "type": "VEC3"
    },
    {
      "bufferView": 2,
      "byteOffset": 101088,
      "componentType": 5126,
      "count": 1794,
      "max": [
        1.0,
        1.0,
        1.0
      ],
      "min": [
        -1.0,
        -1.0,
        -1.0
      ],
      "type": "VEC3"
    },
    {
      "bufferView": 3,
      "byteOffset": 53040,
      "componentType": 5126,
      "count": 1794,
      "max": [
        1.0,
        1.0,
        0.7372874021530151,
        1.0
      ],
      "min": [
        -1.0,
        -1.0,
        -0.7372879385948181,
        1.0
      ],
      "type": "VEC4"
    },
    {
      "bufferView": 1,
      "byteOffset": 26520,
      "componentType": 5126,
      "count": 1794,
      "max": [
        0.9996235966682434,
        0.9978736042976379
      ],
      "min": [
        0.0,
        0.0
      ],
      "type": "VEC2"
    },
    {
      "bufferView": 0,
      "byteOffset": 49200,
      "componentType": 5125,
      "count": 6756,
      "type": "SCALAR"
    }
  ],
  "asset": {
    "extras": {
      "author": "Ramanan (https://sketchfab.com/Ramanan)",
      "license": "CC-BY-4.0 (http://creativecommons.org/licenses/by/4.0/)",
      "source": "https://sketchfab.com/3d-models/vr-headsets-d5cf09477d4041e8b52096165c0a7487",
      "title": "VR Headsets"
    },
    "generator": "Sketchfab-12.67.0",
    "version": "2.0"
  },
  "bufferViews": [
    {
      "buffer": 0,
      "byteLength": 76224,
      "name": "floatBufferViews",
      "target": 34963
    },
    {
      "buffer": 0,
      "byteLength": 40872,
      "byteOffset": 76224,
      "byteStride": 8,
      "name": "floatBufferViews",
      "target": 34962
    },
    {
      "buffer": 0,
      "byteLength": 122616,
      "byteOffset": 117096,
      "byteStride": 12,
      "name": "floatBufferViews",
      "target": 34962
    },
    {
      "buffer": 0,
      "byteLength": 81744,
      "byteOffset": 239712,
      "byteStride": 16,
      "name": "floatBufferViews",
      "target": 34962
    }
  ],
  "buffers": [
    {
      "byteLength": 321456,
      "uri": "scene.bin"
    }
  ],
  "images": [
    {
      "uri": "textures/EyeModule_baseColor.png"
    },
    {
      "uri": "textures/EyeModule_metallicRoughness.png"
    },
    {
      "uri": "textures/EyeModule_emissive.png"
    },
    {
      "uri": "textures/EyeModule_normal.png"
    },
    {
      "uri": "textures/EarModule_baseColor.png"
    },
    {
      "uri": "textures/EarModule_metallicRoughness.png"
    },
    {
      "uri": "textures/EarModule_normal.png"
    }
  ],
  "materials": [
    {
      "doubleSided": true,
      "emissiveFactor": [
        1.0,
        1.0,
        1.0
      ],
      "emissiveTexture": {
        "index": 2
      },
      "name": "EyeModule",
      "normalTexture": {
        "index": 3
      },
      "pbrMetallicRoughness": {
        "baseColorTexture": {
          "index": 0
        },
        "metallicRoughnessTexture": {
          "index": 1
        }
      }
    },
    {
      "doubleSided": true,
      "name": "EarModule",
      "normalTexture": {
        "index": 6
      },
      "pbrMetallicRoughness": {
        "baseColorTexture": {
          "index": 4
        },
        "metallicRoughnessTexture": {
          "index": 5
        }
      }
    }
  ],
  "meshes": [
    {
      "name": "EyeModule_low_EyeModule_0",
      "primitives": [
        {
          "attributes": {
            "NORMAL": 1,
            "POSITION": 0,
            "TANGENT": 2,
            "TEXCOORD_0": 3
          },
          "indices": 4,
          "material": 0,
          "mode": 4
        }
      ]
    },
    {
      "name": "EarModule_low_EarModule_0",
      "primitives": [
        {
          "attributes": {
            "NORMAL": 6,
            "POSITION": 5,
            "TANGENT": 7,
            "TEXCOORD_0": 8
          },
          "indices": 9,
          "material": 1,
          "mode": 4
        }
      ]
    }
  ],
  "nodes": [
    {
      "children": [
        1
      ],
      "matrix": [
        1.0,
        0.0,
        0.0,
        0.0,
        0.0,
        2.220446049250313e-16,
        -1.0,
        0.0,
        0.0,
        1.0,
        2.220446049250313e-16,
        0.0,
        0.0,
        0.0,
        0.0,
        1.0
      ],
      "name": "Sketchfab_model"
    },
    {
      "children": [
        2
      ],
      "matrix": [
        1.0,
        0.0,
        0.0,
        0.0,
        0.0,
        0.0,
        1.0,
        0.0,
        0.0,
        -1.0,
        0.0,
        0.0,
        0.0,
        0.0,
        0.0,
        1.0
      ],
      "name": "VR.fbx"
    },
    {
      "children": [
        3,
        5
      ],
      "name": "RootNode"
    },
    {
      "children": [
        4
      ],
      "matrix": [
        0.02500000037252903,
        0.0,
        0.0,
        0.0,
        0.0,
        -4.073017045488468e-09,
        0.0250000003725287,
        0.0,
        0.0,
        -0.0250000003725287,
        -4.073017045488468e-09,
        0.0,
        0.0,
        0.0,
        0.0,
        1.0
      ],
      "name": "EyeModule_low"
    },
    {
      "mesh": 0,
      "name": "EyeModule_low_EyeModule_0"
    },
    {
      "children": [
        6
      ],
      "matrix": [
        0.02500000037252903,
        0.0,
        0.0,
        0.0,
        0.0,
        -4.073017045488468e-09,
        0.0250000003725287,
        0.0,
        0.0,
        -0.0250000003725287,
        -4.073017045488468e-09,
        0.0,
        0.0,
        0.0,
        0.0,
        1.0
      ],
      "name": "EarModule_low"
    },
    {
      "mesh": 1,
      "name": "EarModule_low_EarModule_0"
    }
  ],
  "samplers": [
    {
      "magFilter": 9729,
      "minFilter": 9987,
      "wrapS": 10497,
      "wrapT": 10497
    }
  ],
  "scene": 0,
  "scenes": [
    {
      "name": "Sketchfab_Scene",
      "nodes": [
        0
      ]
    }
  ],
  "textures": [
    {
      "sampler": 0,
      "source": 0
    },
    {
      "sampler": 0,
      "source": 1
    },
    {
      "sampler": 0,
      "source": 2
    },
    {
      "sampler": 0,
      "source": 3
    },
    {
      "sampler": 0,
      "source": 4
    },
    {
      "sampler": 0,
      "source": 5
    },
    {
      "sampler": 0,
      "source": 6
    }
  ]
}
